<svg width="28" height="20" viewBox="0 0 28 20" fill="none" xmlns="http://www.w3.org/2000/svg">
<path d="M20.7546 5.48761H4.17448L7.5667 2.09039C8.04422 1.61217 8.04422 0.836941 7.5667 0.358718C7.08904 -0.119641 6.3151 -0.119505 5.83744 0.358718L0.358139 5.84638C-0.11938 6.3246 -0.11938 7.09982 0.358139 7.57804L5.83744 13.0654C6.07627 13.3046 6.38914 13.4241 6.702 13.4241C7.01487 13.4241 7.32773 13.3045 7.56656 13.0654C8.04408 12.5872 8.04408 11.812 7.56656 11.3338L4.17435 7.93654H20.7545C23.4013 7.93654 25.5547 10.0931 25.5547 12.7438C25.5547 15.3945 23.4013 17.5511 20.7545 17.5511H10.6686C9.99328 17.5511 9.44593 18.0992 9.44593 18.7755C9.44593 19.4518 9.99328 20 10.6686 20H20.7545C24.7496 20 28 16.7448 28 12.7438C28 8.74279 24.7498 5.48761 20.7546 5.48761Z" fill="url(#paint0_linear_82_3193)"/>
<defs>
<linearGradient id="paint0_linear_82_3193" x1="14" y1="-7.23077" x2="14" y2="20" gradientUnits="userSpaceOnUse">
<stop offset="0.1875" stop-color="#AB56FF"/>
<stop offset="1" stop-color="#5E00BA"/>
</linearGradient>
</defs>
</svg>
